<svg width="91" height="114" viewBox="0 0 91 114" fill="none" xmlns="http://www.w3.org/2000/svg">
<path d="M67.5371 98.7324C81.4413 100.043 90.8438 102.549 90.8438 105.427C90.8423 109.659 70.5066 113.09 45.4219 113.09C20.3371 113.09 0.001463 109.659 0 105.427C0 102.548 9.40493 100.042 23.3125 98.7324C15.496 99.8128 10.5078 101.453 10.5078 103.291C10.5087 106.544 26.1405 109.182 45.4229 109.182C64.7052 109.182 80.337 106.544 80.3379 103.291C80.3379 101.454 75.3513 99.8128 67.5371 98.7324Z" fill="url(#paint0_linear_1657_5353)"/>
<path d="M61.0684 98.6836C67.7727 99.5026 72.1348 100.833 72.1348 102.336C72.1333 104.825 60.1717 106.844 45.417 106.844C30.6622 106.844 18.7007 104.825 18.6992 102.336C18.6992 100.832 23.062 99.5026 29.7676 98.6836C26.756 99.2851 24.9406 100.061 24.9404 100.91C24.9404 102.818 34.1085 104.365 45.418 104.365C56.7273 104.365 65.8955 102.818 65.8955 100.91C65.8953 100.061 64.0796 99.2851 61.0684 98.6836Z" fill="url(#paint1_linear_1657_5353)"/>
<path d="M45.418 97.4453C40.1559 97.4457 35.8909 98.1658 35.8896 99.0537C35.8896 99.942 40.1573 100.662 45.4219 100.662C50.6866 100.662 54.9551 99.942 54.9551 99.0537C54.9539 98.1731 50.7576 97.4583 45.5547 97.4463C53.5409 97.459 59.992 98.5548 59.9922 99.9053C59.9922 101.264 53.4651 102.365 45.4141 102.365C37.3629 102.365 30.8359 101.264 30.8359 99.9053C30.8361 98.5469 37.363 97.4453 45.4141 97.4453C45.4154 97.4453 45.4167 97.4453 45.418 97.4453Z" fill="url(#paint2_linear_1657_5353)"/>
<path d="M45.6721 87.3301C45.6721 87.3301 43.1172 91.1935 43.1172 93.927C43.1172 96.0835 44.1044 97.4414 45.6721 97.4414C47.2399 97.4414 48.2271 96.0835 48.2271 93.927C48.2271 91.1935 45.6721 87.3301 45.6721 87.3301ZM45.956 96.1723V95.5866C46.2383 95.5861 46.5088 95.4317 46.7084 95.1572C46.908 94.8826 47.0203 94.5104 47.0206 94.1222H47.4464C47.446 94.6658 47.2888 95.1869 47.0094 95.5712C46.73 95.9555 46.3512 96.1717 45.956 96.1723Z" fill="url(#paint3_linear_1657_5353)"/>
<path d="M45.4258 87.6719V87.6738L45.4238 87.6709L45.4258 87.6719ZM44.3633 64.8955C45.0477 64.6364 45.8039 64.6364 46.4883 64.8955L48.3867 65.6143C49.1383 65.8988 49.7419 66.4748 50.0918 67.1982C50.3849 67.8044 50.758 68.537 51.0996 69.0918C51.4438 69.6508 51.9246 70.3029 52.3789 70.8857C53.1485 71.8731 53.3002 73.2249 52.7012 74.3242L45.5869 87.377C45.6446 87.1189 45.6836 86.7172 45.6836 86.2656C45.6836 85.7544 45.6675 85.4284 45.6426 85.2207C45.7547 85.1593 45.83 85.0512 45.8301 84.9268C45.8299 84.7348 45.6525 84.5792 45.4336 84.5791C45.2146 84.5792 45.0373 84.7347 45.0371 84.9268C45.0372 85.0537 45.1155 85.1639 45.2314 85.2246C45.2068 85.4324 45.1924 85.7576 45.1924 86.2656C45.1924 86.765 45.2375 87.2036 45.3057 87.4541L38.1934 74.4043C37.5731 73.2663 37.7618 71.8639 38.582 70.8604C39.0497 70.2882 39.5346 69.6492 39.8711 69.0918C40.1865 68.5693 40.5132 67.8827 40.7734 67.2949C41.1184 66.5157 41.745 65.8868 42.542 65.585L44.3633 64.8955Z" fill="url(#paint4_linear_1657_5353)"/>
<path d="M46.8789 0C49.4217 0.556034 51.5133 2.4694 52.2422 5.05273L56.0889 18.6865C56.3806 19.7207 56.5033 20.7957 56.4531 21.8691L54.3428 67.0117C54.3343 67.1921 54.2339 67.3557 54.0771 67.4453C48.6714 70.5306 42.0367 70.5314 36.6309 67.4463C36.4734 67.3564 36.3732 67.1918 36.3652 67.0107L35.6182 49.9961L35.6523 49.9941C37.8659 49.8639 39.7409 49.3691 41.2773 48.5098C42.8138 47.6504 44.0768 46.5176 45.0664 45.1113C46.0559 43.7051 46.8112 42.0644 47.332 40.1895C47.8789 38.3145 48.2695 36.2961 48.5039 34.1348C48.7643 31.9734 48.9076 29.7206 48.9336 27.377C48.9857 25.0333 49.0117 22.6763 49.0117 20.3066C49.0117 18.0411 48.9857 15.7883 48.9336 13.5488C48.9075 11.2833 48.7643 9.13465 48.5039 7.10352C48.2695 5.04637 47.8919 3.14507 47.3711 1.40039C47.2262 0.915037 47.0601 0.44908 46.8789 0ZM43.6211 0.267578C44.2461 2.32479 44.6367 4.96827 44.793 8.19727C44.9492 11.4003 45.0273 15.2287 45.0273 19.6816C45.0273 23.8482 44.9362 27.6896 44.7539 31.2051C44.5977 34.7206 44.194 37.7676 43.543 40.3457C42.918 42.8977 41.9674 44.89 40.6914 46.3223C39.4519 47.7426 37.7388 48.4569 35.5518 48.4688L35.502 47.3408L35.6875 15.2051L38.4336 5.11621C39.121 2.5912 41.1085 0.69208 43.5557 0.0605469C43.5773 0.129112 43.6002 0.197785 43.6211 0.267578Z" fill="url(#paint5_linear_1657_5353)"/>
<defs>
<linearGradient id="paint0_linear_1657_5353" x1="90.8438" y1="102.745" x2="88.8965" y2="119.444" gradientUnits="userSpaceOnUse">
<stop offset="0.0528846" stop-color="#797979"/>
<stop offset="0.245192" stop-color="#C5C3C3"/>
<stop offset="0.394231" stop-color="#A39898"/>
<stop offset="1" stop-color="#DFDFDF"/>
</linearGradient>
<linearGradient id="paint1_linear_1657_5353" x1="72.1348" y1="100.964" x2="71.0644" y2="110.463" gradientUnits="userSpaceOnUse">
<stop offset="0.0528846" stop-color="#797979"/>
<stop offset="0.245192" stop-color="#C5C3C3"/>
<stop offset="0.394231" stop-color="#A39898"/>
<stop offset="1" stop-color="#DFDFDF"/>
</linearGradient>
<linearGradient id="paint2_linear_1657_5353" x1="59.9922" y1="98.8204" x2="59.2811" y2="104.532" gradientUnits="userSpaceOnUse">
<stop offset="0.0528846" stop-color="#797979"/>
<stop offset="0.245192" stop-color="#C5C3C3"/>
<stop offset="0.394231" stop-color="#A39898"/>
<stop offset="1" stop-color="#DFDFDF"/>
</linearGradient>
<linearGradient id="paint3_linear_1657_5353" x1="48.2271" y1="90.1561" x2="42.6699" y2="93.9623" gradientUnits="userSpaceOnUse">
<stop offset="0.0528846" stop-color="#797979"/>
<stop offset="0.245192" stop-color="#C5C3C3"/>
<stop offset="0.394231" stop-color="#A39898"/>
<stop offset="1" stop-color="#DFDFDF"/>
</linearGradient>
<linearGradient id="paint4_linear_1657_5353" x1="53.0688" y1="71.1219" x2="39.6039" y2="83.23" gradientUnits="userSpaceOnUse">
<stop offset="0.0528846" stop-color="#797979"/>
<stop offset="0.245192" stop-color="#C5C3C3"/>
<stop offset="0.394231" stop-color="#A39898"/>
<stop offset="1" stop-color="#DFDFDF"/>
</linearGradient>
<linearGradient id="paint5_linear_1657_5353" x1="56.4641" y1="19.4973" x2="27.7373" y2="31.1962" gradientUnits="userSpaceOnUse">
<stop offset="0.0528846" stop-color="#797979"/>
<stop offset="0.245192" stop-color="#C5C3C3"/>
<stop offset="0.394231" stop-color="#A39898"/>
<stop offset="1" stop-color="#DFDFDF"/>
</linearGradient>
</defs>
</svg>
